<svg xmlns="http://www.w3.org/2000/svg" viewBox="0 0 512 512" width="512" height="512" shape-rendering="crispEdges">
  <defs>
    <linearGradient id="bgGrad" x1="0%" y1="0%" x2="100%" y2="100%">
      <stop offset="0%" style="stop-color:#0a0e1a"/>
      <stop offset="100%" style="stop-color:#0d1a30"/>
    </linearGradient>
    <filter id="bg" x="-50%" y="-50%" width="200%" height="200%">
      <feGaussianBlur stdDeviation="8" result="coloredBlur"/>
      <feMerge><feMergeNode in="coloredBlur"/><feMergeNode in="SourceGraphic"/></feMerge>
    </filter>
    <filter id="rg" x="-50%" y="-50%" width="200%" height="200%">
      <feGaussianBlur stdDeviation="8" result="coloredBlur"/>
      <feMerge><feMergeNode in="coloredBlur"/><feMergeNode in="SourceGraphic"/></feMerge>
    </filter>
  </defs>

  <!-- 背景 -->
  <rect width="512" height="512" rx="96" ry="96" fill="url(#bgGrad)"/>
  <rect x="18" y="18" width="476" height="476" rx="80" ry="80" fill="none" stroke="#1a2a4a" stroke-width="4"/>

  <!-- ボーダーライン上 -->
  <rect x="40" y="32" width="180" height="6" rx="3" fill="#00d4ff" filter="url(#bg)"/>
  <rect x="226" y="32" width="60" height="6" rx="3" fill="#7755ff"/>
  <rect x="292" y="32" width="180" height="6" rx="3" fill="#ff3355" filter="url(#rg)"/>

  <!-- ボーダーライン下 -->
  <rect x="40" y="474" width="180" height="6" rx="3" fill="#00d4ff" filter="url(#bg)"/>
  <rect x="226" y="474" width="60" height="6" rx="3" fill="#7755ff"/>
  <rect x="292" y="474" width="180" height="6" rx="3" fill="#ff3355" filter="url(#rg)"/>

  <!-- 中央分割ライン -->
  <rect x="40" y="254" width="432" height="4" fill="#7755ff" opacity="0.5"/>

  <!-- ==================== -->
  <!-- DIGI (上段, Y=100)   -->
  <!-- 開始X=97, px=18, g=10 -->
  <!-- D: x=97 -->
  <!-- ==================== -->
  <!-- D -->
  <rect x="97"  y="100" width="18" height="18" fill="#00d4ff" filter="url(#bg)"/>
  <rect x="115" y="100" width="18" height="18" fill="#00d4ff" filter="url(#bg)"/>
  <rect x="133" y="100" width="18" height="18" fill="#00d4ff" filter="url(#bg)"/>
  <rect x="97"  y="118" width="18" height="18" fill="#00d4ff" filter="url(#bg)"/>
  <rect x="151" y="118" width="18" height="18" fill="#00d4ff" filter="url(#bg)"/>
  <rect x="97"  y="136" width="18" height="18" fill="#00d4ff" filter="url(#bg)"/>
  <rect x="151" y="136" width="18" height="18" fill="#00d4ff" filter="url(#bg)"/>
  <rect x="97"  y="154" width="18" height="18" fill="#00d4ff" filter="url(#bg)"/>
  <rect x="151" y="154" width="18" height="18" fill="#00d4ff" filter="url(#bg)"/>
  <rect x="97"  y="172" width="18" height="18" fill="#00d4ff" filter="url(#bg)"/>
  <rect x="115" y="172" width="18" height="18" fill="#00d4ff" filter="url(#bg)"/>
  <rect x="133" y="172" width="18" height="18" fill="#00d4ff" filter="url(#bg)"/>

  <!-- I1: x=197 -->
  <rect x="197" y="100" width="18" height="18" fill="#00d4ff" filter="url(#bg)"/>
  <rect x="215" y="100" width="18" height="18" fill="#00d4ff" filter="url(#bg)"/>
  <rect x="233" y="100" width="18" height="18" fill="#00d4ff" filter="url(#bg)"/>
  <rect x="215" y="118" width="18" height="18" fill="#00d4ff" filter="url(#bg)"/>
  <rect x="215" y="136" width="18" height="18" fill="#00d4ff" filter="url(#bg)"/>
  <rect x="215" y="154" width="18" height="18" fill="#00d4ff" filter="url(#bg)"/>
  <rect x="197" y="172" width="18" height="18" fill="#00d4ff" filter="url(#bg)"/>
  <rect x="215" y="172" width="18" height="18" fill="#00d4ff" filter="url(#bg)"/>
  <rect x="233" y="172" width="18" height="18" fill="#00d4ff" filter="url(#bg)"/>

  <!-- G: x=261 -->
  <rect x="261" y="100" width="18" height="18" fill="#00d4ff" filter="url(#bg)"/>
  <rect x="279" y="100" width="18" height="18" fill="#00d4ff" filter="url(#bg)"/>
  <rect x="297" y="100" width="18" height="18" fill="#00d4ff" filter="url(#bg)"/>
  <rect x="315" y="100" width="18" height="18" fill="#00d4ff" filter="url(#bg)"/>
  <rect x="261" y="118" width="18" height="18" fill="#00d4ff" filter="url(#bg)"/>
  <rect x="261" y="136" width="18" height="18" fill="#00d4ff" filter="url(#bg)"/>
  <rect x="297" y="136" width="18" height="18" fill="#00d4ff" filter="url(#bg)"/>
  <rect x="315" y="136" width="18" height="18" fill="#00d4ff" filter="url(#bg)"/>
  <rect x="261" y="154" width="18" height="18" fill="#00d4ff" filter="url(#bg)"/>
  <rect x="315" y="154" width="18" height="18" fill="#00d4ff" filter="url(#bg)"/>
  <rect x="261" y="172" width="18" height="18" fill="#00d4ff" filter="url(#bg)"/>
  <rect x="279" y="172" width="18" height="18" fill="#00d4ff" filter="url(#bg)"/>
  <rect x="297" y="172" width="18" height="18" fill="#00d4ff" filter="url(#bg)"/>
  <rect x="315" y="172" width="18" height="18" fill="#00d4ff" filter="url(#bg)"/>

  <!-- I2: x=361 -->
  <rect x="361" y="100" width="18" height="18" fill="#00d4ff" filter="url(#bg)"/>
  <rect x="379" y="100" width="18" height="18" fill="#00d4ff" filter="url(#bg)"/>
  <rect x="397" y="100" width="18" height="18" fill="#00d4ff" filter="url(#bg)"/>
  <rect x="379" y="118" width="18" height="18" fill="#00d4ff" filter="url(#bg)"/>
  <rect x="379" y="136" width="18" height="18" fill="#00d4ff" filter="url(#bg)"/>
  <rect x="379" y="154" width="18" height="18" fill="#00d4ff" filter="url(#bg)"/>
  <rect x="361" y="172" width="18" height="18" fill="#00d4ff" filter="url(#bg)"/>
  <rect x="379" y="172" width="18" height="18" fill="#00d4ff" filter="url(#bg)"/>
  <rect x="397" y="172" width="18" height="18" fill="#00d4ff" filter="url(#bg)"/>

  <!-- ==================== -->
  <!-- LOG (下段, Y=295)    -->
  <!-- 開始X=120, px=18, g=10 -->
  <!-- ==================== -->

  <!-- L: x=120 -->
  <rect x="120" y="295" width="18" height="18" fill="#ff3355" filter="url(#rg)"/>
  <rect x="120" y="313" width="18" height="18" fill="#ff3355" filter="url(#rg)"/>
  <rect x="120" y="331" width="18" height="18" fill="#ff3355" filter="url(#rg)"/>
  <rect x="120" y="349" width="18" height="18" fill="#ff3355" filter="url(#rg)"/>
  <rect x="120" y="367" width="18" height="18" fill="#ff3355" filter="url(#rg)"/>
  <rect x="138" y="367" width="18" height="18" fill="#ff3355" filter="url(#rg)"/>
  <rect x="156" y="367" width="18" height="18" fill="#ff3355" filter="url(#rg)"/>
  <rect x="174" y="367" width="18" height="18" fill="#ff3355" filter="url(#rg)"/>

  <!-- O: x=202 -->
  <rect x="202" y="295" width="18" height="18" fill="#ff3355" filter="url(#rg)"/>
  <rect x="220" y="295" width="18" height="18" fill="#ff3355" filter="url(#rg)"/>
  <rect x="238" y="295" width="18" height="18" fill="#ff3355" filter="url(#rg)"/>
  <rect x="256" y="295" width="18" height="18" fill="#ff3355" filter="url(#rg)"/>
  <rect x="202" y="313" width="18" height="18" fill="#ff3355" filter="url(#rg)"/>
  <rect x="256" y="313" width="18" height="18" fill="#ff3355" filter="url(#rg)"/>
  <rect x="202" y="331" width="18" height="18" fill="#ff3355" filter="url(#rg)"/>
  <rect x="256" y="331" width="18" height="18" fill="#ff3355" filter="url(#rg)"/>
  <rect x="202" y="349" width="18" height="18" fill="#ff3355" filter="url(#rg)"/>
  <rect x="256" y="349" width="18" height="18" fill="#ff3355" filter="url(#rg)"/>
  <rect x="202" y="367" width="18" height="18" fill="#ff3355" filter="url(#rg)"/>
  <rect x="220" y="367" width="18" height="18" fill="#ff3355" filter="url(#rg)"/>
  <rect x="238" y="367" width="18" height="18" fill="#ff3355" filter="url(#rg)"/>
  <rect x="256" y="367" width="18" height="18" fill="#ff3355" filter="url(#rg)"/>

  <!-- G: x=302 -->
  <rect x="302" y="295" width="18" height="18" fill="#ff3355" filter="url(#rg)"/>
  <rect x="320" y="295" width="18" height="18" fill="#ff3355" filter="url(#rg)"/>
  <rect x="338" y="295" width="18" height="18" fill="#ff3355" filter="url(#rg)"/>
  <rect x="356" y="295" width="18" height="18" fill="#ff3355" filter="url(#rg)"/>
  <rect x="302" y="313" width="18" height="18" fill="#ff3355" filter="url(#rg)"/>
  <rect x="302" y="331" width="18" height="18" fill="#ff3355" filter="url(#rg)"/>
  <rect x="338" y="331" width="18" height="18" fill="#ff3355" filter="url(#rg)"/>
  <rect x="356" y="331" width="18" height="18" fill="#ff3355" filter="url(#rg)"/>
  <rect x="302" y="349" width="18" height="18" fill="#ff3355" filter="url(#rg)"/>
  <rect x="356" y="349" width="18" height="18" fill="#ff3355" filter="url(#rg)"/>
  <rect x="302" y="367" width="18" height="18" fill="#ff3355" filter="url(#rg)"/>
  <rect x="320" y="367" width="18" height="18" fill="#ff3355" filter="url(#rg)"/>
  <rect x="338" y="367" width="18" height="18" fill="#ff3355" filter="url(#rg)"/>
  <rect x="356" y="367" width="18" height="18" fill="#ff3355" filter="url(#rg)"/>

  <!-- コーナー装飾 -->
  <rect x="40" y="44" width="10" height="10" fill="#00d4ff" opacity="0.6"/>
  <rect x="462" y="44" width="10" height="10" fill="#ff3355" opacity="0.6"/>
  <rect x="40" y="458" width="10" height="10" fill="#00d4ff" opacity="0.6"/>
  <rect x="462" y="458" width="10" height="10" fill="#ff3355" opacity="0.6"/>
</svg>
